<svg height="180pt" viewBox="-42 0 364 364" width="334pt" xmlns="http://www.w3.org/2000/svg"><path d="m0 24h320v440h-320zm0 0" fill="#ffeb99"/><path d="m320 24v440h-320v-75.761719c121.839844-49.679687 274.160156-153.277343 307.28125-364.238281zm0 0" fill="#ffe477"/><path d="m80 64c0 8.835938-7.164062 16-16 16s-16-7.164062-16-16 7.164062-16 16-16 16 7.164062 16 16zm0 0" fill="#ff7956"/><path d="m144 64c0 8.835938-7.164062 16-16 16s-16-7.164062-16-16 7.164062-16 16-16 16 7.164062 16 16zm0 0" fill="#ff7956"/><path d="m208 64c0 8.835938-7.164062 16-16 16s-16-7.164062-16-16 7.164062-16 16-16 16 7.164062 16 16zm0 0" fill="#ff7956"/><path d="m272 64c0 8.835938-7.164062 16-16 16s-16-7.164062-16-16 7.164062-16 16-16 16 7.164062 16 16zm0 0" fill="#ff7956"/><g fill="#ffc477"><path d="m40 392h240v16h-240zm0 0"/><path d="m40 328h240v16h-240zm0 0"/><path d="m40 264h240v16h-240zm0 0"/><path d="m40 200h240v16h-240zm0 0"/><path d="m40 136h240v16h-240zm0 0"/></g><path d="m56 0h16v56h-16zm0 0" fill="#ff6243"/><path d="m120 0h16v56h-16zm0 0" fill="#ff6243"/><path d="m184 0h16v56h-16zm0 0" fill="#ff6243"/><path d="m248 0h16v56h-16zm0 0" fill="#ff6243"/></svg>